<svg xmlns="http://www.w3.org/2000/svg" xmlns:bx="https://boxy-svg.com" version="1.0" preserveAspectRatio="xMidYMid meet" viewBox="10 147.32 16 19.44">
  <g transform="translate(0.000000,170.000000) scale(0.100000,-0.100000)" fill="#000000" stroke="none">
    <path d="M153 199 c-40 -23 -53 -36 -53 -54 0 -13 5 -27 10 -30 8 -5 7 -11 0 -20 -6 -8 -10 -24 -8 -37 5 -35 40 -34 103 2 42 24 55 37 55 55 0 13 -5 27 -10 30 -8 5 -7 11 0 20 6 8 10 24 8 37 -5 34 -44 33 -105 -3z m94 5 c4 -10 -1 -22 -10 -29 -21 -15 -22 -31 -2 -39 29 -11 15 -34 -40 -65 -54 -30 -85 -32 -85 -5 0 8 7 17 15 20 8 4 15 12 15 19 0 7 -7 15 -15 19 -28 11 -15 34 38 64 60 36 75 38 84 16z"/>
  </g>
  <path d="M 18.155 176.899 Q 18.77 176.011 19.385 176.899 L 21.07 179.33 Q 21.685 180.218 20.455 180.218 L 17.085 180.218 Q 15.855 180.218 16.47 179.33 Z" bx:shape="triangle 15.855 176.011 5.83 4.207 0.5 0.211 1@e71a320f" style="transform-box: fill-box; transform-origin: 50% 50%; stroke: rgb(0, 0, 0);" transform="matrix(0, 1, -1, 0, -0.155392, -20.76386)"/>
</svg>